<svg xmlns="http://www.w3.org/2000/svg" width="508" height="556" viewBox="0 0 381 417"><path d="M232 25.2a8339 8339 0 0 0-53.5 83.8l-33.1 52-12.1 18.9c-19.1 29.5-29.5 47-28.9 48.7.5 1.2 5.7 1.4 34.1 1.4 39.1 0 35.8-1.7 29.9 15.7-2 6-4.3 13.3-5 16.3s-3.7 12.5-6.4 21c-7.7 24.4-13.9 44.8-16.6 54-2.4 8.3-4.1 14-14.4 46.8-8 25.2-6.5 24.8 11.6-3.3l44.9-69 42-64.5 14.7-22.5c19.5-29.8 28-43.5 28.2-45.2s-2.2-1.8-33.9-1.9c-39.1-.2-36.3 1.5-30.5-18.9l12-44 5-19 5-19c1.6-5.7 9.2-35.1 12.1-47 4.3-17.4 3.7-17.9-5.1-4.3m-104.5 5.4-7.5 1.6a68 68 0 0 0-46.7 40.6l-2.8 7-6.6 1.3c-32.9 5.1-56.4 42.2-46 72.4 2.6 7.6 2.6 8.1-.2 14.1a54.4 54.4 0 0 0 33.7 73.5c5.5 1.5 6.1 2 8.1 8.7a56.3 56.3 0 0 0 79.3 32.3c5-2.5 13.2-18.5 13.2-25.7 0-.9-12.4-6.4-14.4-6.4-1 0-3.6 1.6-5.8 3.6-28.5 25.7-66.4-14.5-40.5-42.9 3.2-3.4 7.4-6.7 10.7-8.3 7.5-3.6 9-5.1 9-9 0-14.4-24.8-5.1-39.3 14.8-5.8 8-6.7 8.4-14 5.9a25.1 25.1 0 0 1 5.6-49.2c8.2-.7 10.7-2.6 10.7-8 0-7.8-2.4-8.4-25-6.7-9 .7-7.8-22.8 1.7-33.3 10.7-11.8 30.4-12.6 37.3-1.4 3.7 6.1 14.6 14.5 18.6 14.5 9.3 0 10.3-9.6 1.8-17.4-17.2-15.6-15.1-35.5 5-48.5 21.6-14.1 47.7-6 60.5 18.8 3.2 6.1 3.4 5.9 14.5-10.9 6.4-9.7 6.4-9.7-2.4-19.3-14.6-16-41.4-26.1-58.5-22.1m121 3.6L245 47.5c-1.8 6.6-3.6 13.2-4.2 14.7-2 5.4-1.1 5.8 13.5 5.8 20.9 0 32.7 4.2 44.6 16a56.7 56.7 0 0 1-8.4 87 29 29 0 0 0-8.5 8l-7 11.3a246 246 0 0 0-14.8 24.2l11 1.3a64.7 64.7 0 0 1 31.3 118.8 66 66 0 0 1-20.6 9.2c-2.5.9-18.8 1.2-55.2 1.2-51.7 0-51.7 0-58.4 10.2-3.6 5.7-8.6 13.3-11.1 17-2.4 3.6-4.1 7.1-3.8 7.7.9 1.4 100.6 1.5 118.2.1 51.3-4 87.1-36.7 95.3-87.1 5.4-33.1-13.5-74.9-41.8-92.4-7.4-4.6-7.4-4.3-.2-12a98 98 0 0 0 22-35.8c14.3-57.2-12.6-103.5-68.7-118.3-6.9-1.8-29.1-1.9-29.7-.2"/></svg>